<svg id="_001-speaker" data-name="001-speaker" xmlns="http://www.w3.org/2000/svg" width="33.051" height="26.115" viewBox="0 0 33.051 26.115">
  <path id="Path_180" data-name="Path 180" d="M15.646,7.577a1.668,1.668,0,0,0-1.7.024.512.512,0,0,0-.072.051L6.408,13.967H.551A.55.55,0,0,0,0,14.518V24.984a.551.551,0,0,0,.551.551l5.844,0,7.46,6.852a.538.538,0,0,0,.089.066,1.669,1.669,0,0,0,1.7.024,1.72,1.72,0,0,0,.879-1.518V9.1A1.721,1.721,0,0,0,15.646,7.577Zm-.223,23.379a.632.632,0,0,1-.319.559.578.578,0,0,1-.551.014L7.161,24.739v-2.51a.551.551,0,1,0-1.1,0v2.2l-4.958,0V15.068H6.059v2.2a.551.551,0,0,0,1.1,0v-2.5l7.384-6.247a.576.576,0,0,1,.56.01.632.632,0,0,1,.319.559Z" transform="translate(0 -6.772)" fill="#262626"/>
  <path id="Path_181" data-name="Path 181" d="M45.49,21.549A10.73,10.73,0,0,0,38.2,11.387a.551.551,0,0,0-.354,1.044,9.63,9.63,0,0,1,.013,18.237.551.551,0,0,0,.178,1.072.543.543,0,0,0,.178-.03A10.737,10.737,0,0,0,45.49,21.549Z" transform="translate(-16.832 -8.569)" fill="#262626"/>
  <path id="Path_182" data-name="Path 182" d="M43.507,6.339a.551.551,0,1,0-.43,1.015A12.947,12.947,0,0,1,42.7,31.346a.551.551,0,0,0,.4,1.028,14.049,14.049,0,0,0,.41-26.035Z" transform="translate(-19.02 -6.295)" fill="#262626"/>
  <path id="Path_183" data-name="Path 183" d="M38.073,24.019a7.469,7.469,0,0,0-5.37-7.14.551.551,0,0,0-.305,1.059,6.33,6.33,0,0,1,0,12.163.551.551,0,0,0,.153,1.08.561.561,0,0,0,.153-.021A7.47,7.47,0,0,0,38.073,24.019Z" transform="translate(-14.373 -11.039)" fill="#262626"/>
</svg>
