<svg width="97" height="55" xmlns="http://www.w3.org/2000/svg" xmlns:xlink="http://www.w3.org/1999/xlink"><defs><path id="a" d="M.036.176h51.241V50.6H.037z"/></defs><g fill="none" fill-rule="evenodd"><g transform="translate(40.6 3.01)"><mask id="b" fill="#fff"><use xlink:href="#a"/></mask><path d="M51.006 11.233C48.31-1.01 26.262-3.453 1.793 5.748c-.08.025-.16.047-.24.077C.618 6.18-.055 6.845.048 7.312c.103.467.942.56 1.88.205 22.708-8.604 43.216-6.367 45.716 4.99C50.136 23.83 33.79 40.01 11.175 48.632c-.062.02-.125.038-.185.06-.937.355-1.61 1.021-1.507 1.487.103.467.942.56 1.88.205 24.562-9.306 42.346-26.87 39.643-39.151" fill="#CACDCD" mask="url(#b)"/></g><path d="M41.868 6.377c-.08.025-.16.048-.238.077-.938.355-1.61 1.02-1.507 1.488.102.466.942.558 1.879.204 25.334-9.598 48.216-7.102 51.004 5.567 1.483 6.733-2.989 15.322-12.271 23.582-.43.324-.68.701-.616 1 .103.466.945.557 1.877.203a3.381 3.381 0 001.07-.639l.003.002c10.051-8.9 14.897-18.165 13.3-25.422-2.984-13.555-27.406-16.257-54.5-6.062" fill="#CACDCD"/><g><path d="M45.703 16.467c14.831-5.618 28.226-4.157 29.858 3.26 1.632 7.415-9.106 18.02-23.937 23.639-4.216 1.597-8.353 2.652-12.301 3.136l-.007.013a3.206 3.206 0 00-.91.206c-.932.353-1.607 1.02-1.504 1.487.084.38.663.508 1.38.35 4.407-.554 9.017-1.733 13.712-3.512 16.683-6.32 28.763-18.25 26.927-26.592-1.828-8.302-16.762-9.97-33.35-3.754-.08.025-.161.047-.24.077-.937.355-1.61 1.02-1.507 1.488.103.466.942.558 1.88.202" fill="#CACDCD"/><path d="M32.372 29.697l-3.93-11.412-3.955 11.41 7.885.002zm-9.061 3.404l-1.177 3.405-3.917-.001 8.525-23.84h3.406l8.506 23.848-3.934-.002-1.174-3.407-10.235-.003zM18.513 14.414v-1.738H9.168v3.4h5.938l-.003 8.521c-.002 5.515-2.683 8.35-8.04 8.506H0v3.41h6.583v.003c.076 0 .15-.003.227-.003h.386v-.007c7.538-.199 11.31-4.167 11.313-11.907l.003-8.523v-1.662zM49.17 16.072c-2.351-.001-4.358.83-6.022 2.493-1.664 1.663-2.497 3.67-2.498 6.02 0 2.35.83 4.357 2.493 6.02 1.663 1.665 3.67 2.498 6.02 2.498 2.35.001 4.357-.83 6.02-2.493 1.665-1.663 2.498-3.67 2.499-6.02 0-2.35-.83-4.357-2.493-6.021-1.663-1.664-3.67-2.496-6.02-2.497m8.43.088c2.327 2.329 3.49 5.14 3.489 8.432-.002 3.293-1.167 6.103-3.495 8.429-2.328 2.327-5.139 3.49-8.431 3.489-3.294-.002-6.103-1.167-8.43-3.495-2.326-2.328-3.49-5.139-3.488-8.432.001-3.292 1.166-6.102 3.495-8.43 2.328-2.326 5.138-3.489 8.431-3.487 3.293 0 6.103 1.166 8.43 3.494" fill="#231F20"/></g></g></svg>
